<svg width="200" height="39" viewBox="0 0 200 39" fill="none" xmlns="http://www.w3.org/2000/svg">
<path d="M10.593 31.33C8.547 31.33 6.831 31.033 5.445 30.439C4.081 29.823 3.036 29.031 2.31 28.063C1.606 27.073 1.232 26.039 1.188 24.961C1.188 24.763 1.254 24.598 1.386 24.466C1.518 24.334 1.683 24.268 1.881 24.268H4.818C5.104 24.268 5.313 24.334 5.445 24.466C5.599 24.576 5.731 24.719 5.841 24.895C5.973 25.313 6.226 25.731 6.6 26.149C6.974 26.545 7.48 26.875 8.118 27.139C8.778 27.403 9.603 27.535 10.593 27.535C12.177 27.535 13.354 27.271 14.124 26.743C14.916 26.215 15.312 25.5 15.312 24.598C15.312 23.96 15.103 23.454 14.685 23.08C14.267 22.684 13.618 22.332 12.738 22.024C11.88 21.694 10.736 21.353 9.306 21.001C7.656 20.605 6.27 20.132 5.148 19.582C4.048 19.01 3.212 18.295 2.64 17.437C2.09 16.579 1.815 15.49 1.815 14.17C1.815 12.894 2.156 11.761 2.838 10.771C3.542 9.781 4.532 9 5.808 8.428C7.106 7.856 8.646 7.57 10.428 7.57C11.858 7.57 13.123 7.768 14.223 8.164C15.323 8.538 16.236 9.044 16.962 9.682C17.688 10.298 18.238 10.969 18.612 11.695C19.008 12.399 19.217 13.092 19.239 13.774C19.239 13.95 19.173 14.115 19.041 14.269C18.931 14.401 18.766 14.467 18.546 14.467H15.477C15.301 14.467 15.125 14.423 14.949 14.335C14.773 14.247 14.63 14.082 14.52 13.84C14.388 13.158 13.959 12.575 13.233 12.091C12.507 11.607 11.572 11.365 10.428 11.365C9.24 11.365 8.283 11.585 7.557 12.025C6.831 12.465 6.468 13.147 6.468 14.071C6.468 14.687 6.644 15.204 6.996 15.622C7.37 16.018 7.953 16.37 8.745 16.678C9.559 16.986 10.626 17.316 11.946 17.668C13.816 18.086 15.345 18.57 16.533 19.12C17.721 19.67 18.59 20.374 19.14 21.232C19.69 22.068 19.965 23.135 19.965 24.433C19.965 25.885 19.569 27.128 18.777 28.162C18.007 29.174 16.918 29.955 15.51 30.505C14.102 31.055 12.463 31.33 10.593 31.33ZM25.5619 31C25.3419 31 25.1549 30.923 25.0009 30.769C24.8469 30.615 24.7699 30.428 24.7699 30.208V14.632C24.7699 14.412 24.8469 14.225 25.0009 14.071C25.1549 13.917 25.3419 13.84 25.5619 13.84H28.3009C28.5429 13.84 28.7299 13.917 28.8619 14.071C29.0159 14.225 29.0929 14.412 29.0929 14.632V30.208C29.0929 30.428 29.0159 30.615 28.8619 30.769C28.7299 30.923 28.5429 31 28.3009 31H25.5619ZM25.4299 11.002C25.1879 11.002 24.9899 10.936 24.8359 10.804C24.7039 10.65 24.6379 10.452 24.6379 10.21V7.834C24.6379 7.614 24.7039 7.427 24.8359 7.273C24.9899 7.119 25.1879 7.042 25.4299 7.042H28.4329C28.6749 7.042 28.8729 7.119 29.0269 7.273C29.1809 7.427 29.2579 7.614 29.2579 7.834V10.21C29.2579 10.452 29.1809 10.65 29.0269 10.804C28.8729 10.936 28.6749 11.002 28.4329 11.002H25.4299ZM36.3588 31C36.1388 31 35.9518 30.923 35.7978 30.769C35.6438 30.615 35.5668 30.428 35.5668 30.208V14.632C35.5668 14.412 35.6438 14.225 35.7978 14.071C35.9518 13.917 36.1388 13.84 36.3588 13.84H38.9328C39.1528 13.84 39.3398 13.917 39.4938 14.071C39.6478 14.225 39.7248 14.412 39.7248 14.632V15.754C40.1868 15.138 40.8028 14.621 41.5728 14.203C42.3648 13.763 43.2998 13.532 44.3778 13.51C46.8858 13.466 48.6348 14.445 49.6248 16.447C50.1308 15.567 50.8568 14.863 51.8028 14.335C52.7708 13.785 53.8378 13.51 55.0038 13.51C56.1478 13.51 57.1818 13.774 58.1058 14.302C59.0518 14.83 59.7888 15.633 60.3168 16.711C60.8668 17.767 61.1418 19.109 61.1418 20.737V30.208C61.1418 30.428 61.0648 30.615 60.9108 30.769C60.7568 30.923 60.5698 31 60.3498 31H57.6438C57.4238 31 57.2368 30.923 57.0828 30.769C56.9288 30.615 56.8518 30.428 56.8518 30.208V21.001C56.8518 20.011 56.7088 19.23 56.4228 18.658C56.1368 18.064 55.7518 17.646 55.2678 17.404C54.7838 17.162 54.2448 17.041 53.6508 17.041C53.1668 17.041 52.6828 17.162 52.1988 17.404C51.7148 17.646 51.3188 18.064 51.0108 18.658C50.7028 19.23 50.5488 20.011 50.5488 21.001V30.208C50.5488 30.428 50.4718 30.615 50.3178 30.769C50.1638 30.923 49.9768 31 49.7568 31H47.0508C46.8088 31 46.6108 30.923 46.4568 30.769C46.3248 30.615 46.2588 30.428 46.2588 30.208V21.001C46.2588 20.011 46.1048 19.23 45.7968 18.658C45.4888 18.064 45.0928 17.646 44.6088 17.404C44.1248 17.162 43.6078 17.041 43.0578 17.041C42.5518 17.041 42.0568 17.173 41.5728 17.437C41.0888 17.679 40.6928 18.086 40.3848 18.658C40.0768 19.23 39.9228 20.011 39.9228 21.001V30.208C39.9228 30.428 39.8458 30.615 39.6918 30.769C39.5378 30.923 39.3508 31 39.1308 31H36.3588ZM67.5881 37.27C67.3681 37.27 67.1811 37.193 67.0271 37.039C66.8731 36.885 66.7961 36.698 66.7961 36.478V14.632C66.7961 14.412 66.8731 14.225 67.0271 14.071C67.1811 13.917 67.3681 13.84 67.5881 13.84H70.1951C70.4371 13.84 70.6241 13.917 70.7561 14.071C70.9101 14.225 70.9871 14.412 70.9871 14.632V15.952C71.5151 15.248 72.2081 14.665 73.0661 14.203C73.9241 13.741 74.9911 13.51 76.2671 13.51C77.4331 13.51 78.4451 13.697 79.3031 14.071C80.1611 14.445 80.8761 14.984 81.4481 15.688C82.0201 16.37 82.4601 17.184 82.7681 18.13C83.0761 19.076 83.2521 20.121 83.2961 21.265C83.3181 21.639 83.3291 22.024 83.3291 22.42C83.3291 22.816 83.3181 23.212 83.2961 23.608C83.2741 24.708 83.1091 25.731 82.8011 26.677C82.4931 27.601 82.0421 28.415 81.4481 29.119C80.8761 29.801 80.1611 30.34 79.3031 30.736C78.4451 31.132 77.4331 31.33 76.2671 31.33C75.0791 31.33 74.0671 31.121 73.2311 30.703C72.3951 30.263 71.7131 29.691 71.1851 28.987V36.478C71.1851 36.698 71.1081 36.885 70.9541 37.039C70.8221 37.193 70.6351 37.27 70.3931 37.27H67.5881ZM75.0461 27.799C75.9921 27.799 76.7291 27.601 77.2571 27.205C77.7851 26.787 78.1591 26.248 78.3791 25.588C78.6211 24.928 78.7641 24.202 78.8081 23.41C78.8521 22.75 78.8521 22.09 78.8081 21.43C78.7641 20.638 78.6211 19.912 78.3791 19.252C78.1591 18.592 77.7851 18.064 77.2571 17.668C76.7291 17.25 75.9921 17.041 75.0461 17.041C74.1441 17.041 73.4071 17.25 72.8351 17.668C72.2851 18.086 71.8781 18.625 71.6141 19.285C71.3721 19.923 71.2291 20.583 71.1851 21.265C71.1631 21.661 71.1521 22.079 71.1521 22.519C71.1521 22.959 71.1631 23.388 71.1851 23.806C71.2071 24.466 71.3611 25.104 71.6471 25.72C71.9331 26.314 72.3511 26.809 72.9011 27.205C73.4511 27.601 74.1661 27.799 75.0461 27.799ZM89.2776 31C89.0576 31 88.8706 30.923 88.7166 30.769C88.5626 30.615 88.4856 30.428 88.4856 30.208V8.362C88.4856 8.142 88.5626 7.955 88.7166 7.801C88.8706 7.647 89.0576 7.57 89.2776 7.57H92.0166C92.2366 7.57 92.4236 7.647 92.5776 7.801C92.7316 7.955 92.8086 8.142 92.8086 8.362V30.208C92.8086 30.428 92.7316 30.615 92.5776 30.769C92.4236 30.923 92.2366 31 92.0166 31H89.2776ZM105.997 31.33C103.555 31.33 101.619 30.626 100.189 29.218C98.759 27.81 97.989 25.808 97.879 23.212C97.857 22.992 97.846 22.717 97.846 22.387C97.846 22.035 97.857 21.76 97.879 21.562C97.967 19.912 98.341 18.482 99.001 17.272C99.683 16.062 100.618 15.138 101.806 14.5C102.994 13.84 104.391 13.51 105.997 13.51C107.779 13.51 109.275 13.884 110.485 14.632C111.695 15.358 112.608 16.381 113.224 17.701C113.84 18.999 114.148 20.506 114.148 22.222V22.915C114.148 23.135 114.071 23.322 113.917 23.476C113.763 23.63 113.565 23.707 113.323 23.707H102.367C102.367 23.707 102.367 23.74 102.367 23.806C102.367 23.872 102.367 23.927 102.367 23.971C102.389 24.741 102.532 25.456 102.796 26.116C103.082 26.754 103.489 27.271 104.017 27.667C104.567 28.063 105.216 28.261 105.964 28.261C106.58 28.261 107.097 28.173 107.515 27.997C107.933 27.799 108.274 27.579 108.538 27.337C108.802 27.095 108.989 26.897 109.099 26.743C109.297 26.479 109.451 26.325 109.561 26.281C109.693 26.215 109.88 26.182 110.122 26.182H112.96C113.18 26.182 113.356 26.248 113.488 26.38C113.642 26.512 113.708 26.677 113.686 26.875C113.664 27.227 113.477 27.656 113.125 28.162C112.795 28.668 112.311 29.163 111.673 29.647C111.035 30.131 110.232 30.538 109.264 30.868C108.318 31.176 107.229 31.33 105.997 31.33ZM102.367 20.935H109.66V20.836C109.66 19.978 109.517 19.23 109.231 18.592C108.945 17.954 108.527 17.448 107.977 17.074C107.427 16.7 106.767 16.513 105.997 16.513C105.227 16.513 104.567 16.7 104.017 17.074C103.467 17.448 103.049 17.954 102.763 18.592C102.499 19.23 102.367 19.978 102.367 20.836V20.935Z" fill="#FF6838"/>
<path d="M120.258 31C120.038 31 119.851 30.923 119.697 30.769C119.543 30.615 119.466 30.428 119.466 30.208V8.725C119.466 8.483 119.543 8.285 119.697 8.131C119.851 7.977 120.038 7.9 120.258 7.9H134.58C134.822 7.9 135.02 7.977 135.174 8.131C135.328 8.285 135.405 8.483 135.405 8.725V11.035C135.405 11.277 135.328 11.475 135.174 11.629C135.02 11.761 134.822 11.827 134.58 11.827H123.987V18.097H133.92C134.162 18.097 134.36 18.174 134.514 18.328C134.668 18.482 134.745 18.68 134.745 18.922V21.232C134.745 21.452 134.668 21.639 134.514 21.793C134.36 21.947 134.162 22.024 133.92 22.024H123.987V30.208C123.987 30.428 123.91 30.615 123.756 30.769C123.602 30.923 123.404 31 123.162 31H120.258ZM147.576 31.33C145.816 31.33 144.331 31.022 143.121 30.406C141.933 29.79 141.02 28.921 140.382 27.799C139.766 26.677 139.414 25.368 139.326 23.872C139.304 23.476 139.293 22.992 139.293 22.42C139.293 21.848 139.304 21.364 139.326 20.968C139.414 19.45 139.777 18.141 140.415 17.041C141.075 15.919 141.999 15.05 143.187 14.434C144.397 13.818 145.86 13.51 147.576 13.51C149.292 13.51 150.744 13.818 151.932 14.434C153.142 15.05 154.066 15.919 154.704 17.041C155.364 18.141 155.738 19.45 155.826 20.968C155.848 21.364 155.859 21.848 155.859 22.42C155.859 22.992 155.848 23.476 155.826 23.872C155.738 25.368 155.375 26.677 154.737 27.799C154.121 28.921 153.208 29.79 151.998 30.406C150.81 31.022 149.336 31.33 147.576 31.33ZM147.576 28.063C148.742 28.063 149.644 27.7 150.282 26.974C150.92 26.226 151.272 25.137 151.338 23.707C151.36 23.377 151.371 22.948 151.371 22.42C151.371 21.892 151.36 21.463 151.338 21.133C151.272 19.725 150.92 18.647 150.282 17.899C149.644 17.151 148.742 16.777 147.576 16.777C146.41 16.777 145.508 17.151 144.87 17.899C144.232 18.647 143.88 19.725 143.814 21.133C143.792 21.463 143.781 21.892 143.781 22.42C143.781 22.948 143.792 23.377 143.814 23.707C143.88 25.137 144.232 26.226 144.87 26.974C145.508 27.7 146.41 28.063 147.576 28.063ZM168.524 31.33C166.764 31.33 165.279 31.022 164.069 30.406C162.881 29.79 161.968 28.921 161.33 27.799C160.714 26.677 160.362 25.368 160.274 23.872C160.252 23.476 160.241 22.992 160.241 22.42C160.241 21.848 160.252 21.364 160.274 20.968C160.362 19.45 160.725 18.141 161.363 17.041C162.023 15.919 162.947 15.05 164.135 14.434C165.345 13.818 166.808 13.51 168.524 13.51C170.24 13.51 171.692 13.818 172.88 14.434C174.09 15.05 175.014 15.919 175.652 17.041C176.312 18.141 176.686 19.45 176.774 20.968C176.796 21.364 176.807 21.848 176.807 22.42C176.807 22.992 176.796 23.476 176.774 23.872C176.686 25.368 176.323 26.677 175.685 27.799C175.069 28.921 174.156 29.79 172.946 30.406C171.758 31.022 170.284 31.33 168.524 31.33ZM168.524 28.063C169.69 28.063 170.592 27.7 171.23 26.974C171.868 26.226 172.22 25.137 172.286 23.707C172.308 23.377 172.319 22.948 172.319 22.42C172.319 21.892 172.308 21.463 172.286 21.133C172.22 19.725 171.868 18.647 171.23 17.899C170.592 17.151 169.69 16.777 168.524 16.777C167.358 16.777 166.456 17.151 165.818 17.899C165.18 18.647 164.828 19.725 164.762 21.133C164.74 21.463 164.729 21.892 164.729 22.42C164.729 22.948 164.74 23.377 164.762 23.707C164.828 25.137 165.18 26.226 165.818 26.974C166.456 27.7 167.358 28.063 168.524 28.063ZM188.252 31.33C187.108 31.33 186.096 31.143 185.216 30.769C184.358 30.373 183.643 29.823 183.071 29.119C182.499 28.415 182.059 27.59 181.751 26.644C181.443 25.676 181.267 24.62 181.223 23.476C181.201 23.08 181.19 22.728 181.19 22.42C181.19 22.09 181.201 21.727 181.223 21.331C181.267 20.231 181.432 19.208 181.718 18.262C182.026 17.316 182.466 16.491 183.038 15.787C183.632 15.061 184.358 14.5 185.216 14.104C186.096 13.708 187.108 13.51 188.252 13.51C189.44 13.51 190.441 13.719 191.255 14.137C192.091 14.533 192.784 15.05 193.334 15.688V8.362C193.334 8.142 193.4 7.955 193.532 7.801C193.686 7.647 193.884 7.57 194.126 7.57H196.931C197.151 7.57 197.338 7.647 197.492 7.801C197.646 7.955 197.723 8.142 197.723 8.362V30.208C197.723 30.428 197.646 30.615 197.492 30.769C197.338 30.923 197.151 31 196.931 31H194.324C194.082 31 193.884 30.923 193.73 30.769C193.598 30.615 193.532 30.428 193.532 30.208V28.987C192.982 29.669 192.278 30.23 191.42 30.67C190.584 31.11 189.528 31.33 188.252 31.33ZM189.473 27.799C190.397 27.799 191.134 27.59 191.684 27.172C192.234 26.754 192.641 26.226 192.905 25.588C193.169 24.928 193.312 24.257 193.334 23.575C193.356 23.179 193.367 22.761 193.367 22.321C193.367 21.859 193.356 21.43 193.334 21.034C193.312 20.374 193.158 19.747 192.872 19.153C192.586 18.537 192.168 18.031 191.618 17.635C191.068 17.239 190.353 17.041 189.473 17.041C188.549 17.041 187.812 17.25 187.262 17.668C186.734 18.064 186.349 18.592 186.107 19.252C185.865 19.912 185.722 20.638 185.678 21.43C185.656 22.09 185.656 22.75 185.678 23.41C185.722 24.202 185.865 24.928 186.107 25.588C186.349 26.248 186.734 26.787 187.262 27.205C187.812 27.601 188.549 27.799 189.473 27.799Z" fill="#363853"/>
</svg>
