<?xml version="1.0" standalone="no"?>
<!DOCTYPE svg PUBLIC "-//W3C//DTD SVG 20010904//EN"
 "http://www.w3.org/TR/2001/REC-SVG-20010904/DTD/svg10.dtd">
<svg version="1.0" xmlns="http://www.w3.org/2000/svg"
 width="700.000000pt" height="700.000000pt" viewBox="0 0 700.000000 700.000000"
 preserveAspectRatio="xMidYMid meet">
<metadata>
Created by potrace 1.14, written by Peter Selinger 2001-2017
</metadata>
<g transform="translate(0.000000,700.000000) scale(0.100000,-0.100000)"
fill="#000000" stroke="none">
<path d="M0 3500 l0 -3500 3500 0 3500 0 0 3500 0 3500 -3500 0 -3500 0 0
-3500z m3690 1725 c266 -47 492 -150 687 -313 126 -105 261 -311 302 -462 40
-144 23 -218 -57 -240 -45 -12 -458 -13 -522 -1 -55 11 -104 61 -120 123 -34
127 -162 240 -345 305 -77 27 -86 28 -275 27 -180 0 -201 -2 -277 -25 -147
-46 -234 -115 -285 -225 -19 -41 -23 -66 -23 -149 0 -89 3 -106 28 -157 79
-161 276 -252 874 -407 528 -137 759 -243 935 -430 83 -88 133 -178 168 -301
28 -96 38 -325 20 -436 -73 -458 -453 -766 -1062 -861 -156 -24 -537 -24 -693
0 -443 70 -777 261 -952 545 -88 143 -145 365 -113 442 23 57 42 60 325 60
170 0 264 -4 278 -11 44 -23 78 -65 117 -144 71 -148 221 -261 415 -312 59
-15 107 -18 300 -17 204 0 239 3 310 22 183 50 290 127 348 250 28 60 32 77
32 157 0 78 -4 97 -28 147 -73 148 -244 231 -773 373 -430 116 -538 152 -709
237 -244 122 -363 233 -450 421 -119 257 -104 623 35 858 174 293 522 489 961
538 122 14 435 6 549 -14z"/>
</g>
</svg>
