<svg width="42" height="42" viewBox="0 0 42 42" fill="none" xmlns="http://www.w3.org/2000/svg">
<g filter="url(#filter0_d_0_379)">
<g clip-path="url(#clip0_0_379)">
<path d="M35.7543 12.8812L36.7503 11.8853C37.0383 11.5974 37.1969 11.2146 37.1969 10.8074C37.1969 10.4003 37.0383 10.0174 36.7504 9.72958L35.6096 8.58879C35.3217 8.30092 34.9389 8.14234 34.5318 8.14234C34.1246 8.14234 33.7418 8.30092 33.454 8.58879L32.4579 9.58481C31.1434 8.67936 29.6517 8.01371 28.046 7.6516V6.17944H28.6521C29.4727 6.17944 30.1403 5.51179 30.1403 4.69121V2.6208C30.1403 1.80015 29.4727 1.13251 28.6521 1.13251H21.8004C20.9798 1.13251 20.3122 1.80015 20.3122 2.6208V4.69114C20.3122 5.51173 20.9798 6.17937 21.8004 6.17937H22.4064V7.65565C20.8081 8.01876 19.3231 8.68288 18.0137 9.58475L17.0177 8.58872C16.7299 8.30085 16.347 8.14227 15.94 8.14227C15.5327 8.14227 15.15 8.30085 14.8621 8.58872L13.7213 9.72951C13.1271 10.3238 13.1271 11.2909 13.7213 11.8852L13.8979 12.0618H9.19077C8.82407 12.0618 8.52671 12.3591 8.52671 12.7258C8.52671 13.0926 8.82407 13.3899 9.19077 13.3899H14.3845C13.8897 14.1868 13.48 15.0417 13.1686 15.9423H4.66406C4.29737 15.9423 4 16.2396 4 16.6064C4 16.9732 4.29737 17.2705 4.66406 17.2705H12.789C12.6017 18.0942 12.4942 18.9477 12.4752 19.8229H8.24999C7.8833 19.8229 7.58593 20.1202 7.58593 20.487C7.58593 20.8537 7.8833 21.151 8.24999 21.151H12.5149C12.5867 22.0299 12.748 22.8836 12.9895 23.7035H7.32031C6.95361 23.7035 6.65624 24.0008 6.65624 24.3675C6.65624 24.7343 6.95361 25.0316 7.32031 25.0316H13.4618C15.3938 29.63 19.9436 32.8675 25.2358 32.8675C32.274 32.8675 38 27.1415 38 20.1033C38 17.4246 37.1699 14.9364 35.7543 12.8812ZM34.3931 9.5279C34.4406 9.48042 34.4947 9.47046 34.5318 9.47046C34.5689 9.47046 34.623 9.48042 34.6705 9.5279L35.8113 10.6687C35.8588 10.7162 35.8688 10.7704 35.8688 10.8074C35.8688 10.8445 35.8588 10.8987 35.8112 10.9461L34.9382 11.8192C34.5031 11.3104 34.0288 10.8361 33.52 10.401L34.3931 9.5279ZM21.6403 4.69121V2.6208C21.6403 2.53248 21.7122 2.46063 21.8004 2.46063H28.6521C28.7403 2.46063 28.8122 2.53248 28.8122 2.6208V4.69114C28.8122 4.77947 28.7403 4.85125 28.6521 4.85125H27.382H23.0704H21.8004C21.7122 4.85132 21.6403 4.77947 21.6403 4.69121ZM23.7345 6.17944H26.7179V7.42568C26.2315 7.36917 25.7372 7.33916 25.2359 7.33916C24.7279 7.33916 24.2272 7.3699 23.7346 7.42787L23.7345 6.17944ZM14.6604 10.6686L15.8012 9.52784C15.8486 9.48036 15.9028 9.47039 15.9399 9.47039C15.9769 9.47039 16.0311 9.48036 16.0786 9.52784L16.9516 10.4009C16.4428 10.836 15.9686 11.3103 15.5335 11.8191L14.6604 10.9461C14.5839 10.8696 14.5839 10.7451 14.6604 10.6686ZM25.2358 31.5393C18.93 31.5393 13.7997 26.4091 13.7997 20.1033C13.7997 13.7974 18.93 8.66721 25.2358 8.66721C31.5417 8.66721 36.6719 13.7974 36.6719 20.1033C36.6719 26.4091 31.5417 31.5393 25.2358 31.5393Z" fill="#FF6838"/>
<path d="M29.6188 14.7811L26.4797 17.9202C26.1126 17.7102 25.6881 17.5895 25.2358 17.5895C23.8497 17.5895 22.722 18.7171 22.722 20.1033C22.722 21.4894 23.8497 22.617 25.2358 22.617C26.6219 22.617 27.7495 21.4894 27.7495 20.1033C27.7495 19.6509 27.6288 19.2265 27.4188 18.8594L30.5579 15.7203C30.8172 15.461 30.8172 15.0405 30.5579 14.7811C30.2985 14.5218 29.8782 14.5218 29.6188 14.7811ZM25.2358 21.289C24.582 21.289 24.0502 20.7571 24.0502 20.1034C24.0502 19.4496 24.5821 18.9177 25.2358 18.9177C25.8895 18.9177 26.4214 19.4496 26.4214 20.1034C26.4214 20.7571 25.8896 21.289 25.2358 21.289Z" fill="#FF6838"/>
<path d="M25.2361 11.4937C25.4107 11.4937 25.582 11.4226 25.7055 11.2991C25.829 11.1756 25.9001 11.0042 25.9001 10.8296C25.9001 10.6549 25.8291 10.4836 25.7055 10.3601C25.582 10.2366 25.4107 10.1655 25.2361 10.1655C25.0614 10.1655 24.8901 10.2366 24.7666 10.3601C24.643 10.4836 24.572 10.6549 24.572 10.8296C24.572 11.0049 24.643 11.1756 24.7666 11.2991C24.8901 11.4226 25.0614 11.4937 25.2361 11.4937Z" fill="#FF6838"/>
<path d="M25.2361 28.7128C25.0614 28.7128 24.8901 28.7838 24.7666 28.9073C24.643 29.0309 24.572 29.2022 24.572 29.3768C24.572 29.5521 24.643 29.7228 24.7666 29.8463C24.8901 29.9705 25.0614 30.0409 25.2361 30.0409C25.4107 30.0409 25.582 29.9705 25.7055 29.8463C25.829 29.7228 25.9001 29.5515 25.9001 29.3768C25.9001 29.2022 25.8291 29.0309 25.7055 28.9073C25.582 28.7838 25.4107 28.7128 25.2361 28.7128Z" fill="#FF6838"/>
<path d="M18.6784 12.8815C18.5038 12.8815 18.3325 12.9525 18.2089 13.076C18.0854 13.1996 18.0144 13.3709 18.0144 13.5455C18.0144 13.7208 18.0854 13.8915 18.2089 14.0157C18.3325 14.1392 18.5038 14.2096 18.6784 14.2096C18.8531 14.2096 19.0244 14.1392 19.1479 14.0157C19.2714 13.8915 19.3425 13.7208 19.3425 13.5455C19.3425 13.3709 19.2714 13.2002 19.1479 13.076C19.0244 12.9525 18.8531 12.8815 18.6784 12.8815Z" fill="#FF6838"/>
<path d="M31.7937 25.9967C31.6183 25.9967 31.4477 26.0678 31.3235 26.1913C31.2 26.3148 31.1296 26.4861 31.1296 26.6608C31.1296 26.8354 31.2 27.0067 31.3235 27.1303C31.4477 27.2538 31.6183 27.3248 31.7937 27.3248C31.9683 27.3248 32.1396 27.2538 32.2631 27.1303C32.3866 27.0067 32.4577 26.8354 32.4577 26.6608C32.4577 26.4861 32.3867 26.3148 32.2631 26.1913C32.1396 26.0678 31.9683 25.9967 31.7937 25.9967Z" fill="#FF6838"/>
<path d="M18.6784 25.9967C18.5038 25.9967 18.3325 26.0678 18.2089 26.1913C18.0854 26.3148 18.0144 26.4861 18.0144 26.6608C18.0144 26.8354 18.0854 27.0067 18.2089 27.1303C18.3325 27.2538 18.5038 27.3248 18.6784 27.3248C18.8531 27.3248 19.0244 27.2538 19.1479 27.1303C19.2714 27.0067 19.3425 26.8354 19.3425 26.6608C19.3425 26.4861 19.2714 26.3148 19.1479 26.1913C19.0244 26.0678 18.8531 25.9967 18.6784 25.9967Z" fill="#FF6838"/>
<path d="M15.9625 19.4391C15.7872 19.4391 15.6165 19.5101 15.493 19.6337C15.3689 19.7572 15.2984 19.9285 15.2984 20.1031C15.2984 20.2778 15.3689 20.4491 15.493 20.5726C15.6165 20.6968 15.7872 20.7672 15.9625 20.7672C16.1371 20.7672 16.3084 20.6968 16.432 20.5726C16.5554 20.4491 16.6265 20.2778 16.6265 20.1031C16.6265 19.9285 16.5555 19.7572 16.432 19.6337C16.3084 19.5101 16.1371 19.4391 15.9625 19.4391Z" fill="#FF6838"/>
<path d="M34.9791 19.6337C34.8556 19.5101 34.6843 19.4391 34.5096 19.4391C34.3343 19.4391 34.1636 19.5101 34.0402 19.6337C33.9167 19.7572 33.8456 19.9285 33.8456 20.1031C33.8456 20.2785 33.9166 20.4491 34.0402 20.5726C34.1636 20.6962 34.335 20.7672 34.5096 20.7672C34.6843 20.7672 34.8556 20.6962 34.9791 20.5726C35.1026 20.4491 35.1737 20.2778 35.1737 20.1031C35.1736 19.9285 35.1026 19.7572 34.9791 19.6337Z" fill="#FF6838"/>
<path d="M4.66406 23.7037C4.48941 23.7037 4.31809 23.7741 4.19457 23.8976C4.07105 24.0218 4 24.1925 4 24.3678C4 24.5424 4.07099 24.7131 4.19457 24.8373C4.31809 24.9608 4.48941 25.0319 4.66406 25.0319C4.83871 25.0319 5.01004 24.9608 5.13349 24.8373C5.257 24.7138 5.32812 24.5424 5.32812 24.3678C5.32812 24.1925 5.25707 24.0212 5.13349 23.8976C5.01004 23.7741 4.83871 23.7037 4.66406 23.7037Z" fill="#FF6838"/>
<path d="M34.3142 18.087C34.6656 17.9823 34.8657 17.6124 34.761 17.2609C34.2915 15.6857 33.425 14.236 32.2553 13.0687C31.0853 11.9013 29.6336 11.038 28.057 10.572C27.7054 10.468 27.3359 10.6689 27.232 11.0206C27.128 11.3722 27.3288 11.7417 27.6806 11.8456C30.4825 12.6737 32.6536 14.84 33.4882 17.6402C33.574 17.9284 33.8382 18.1147 34.1243 18.1147C34.187 18.1148 34.2509 18.1058 34.3142 18.087Z" fill="#FF6838"/>
</g>
</g>
<defs>
<filter id="filter0_d_0_379" x="0" y="0" width="42" height="42" filterUnits="userSpaceOnUse" color-interpolation-filters="sRGB">
<feFlood flood-opacity="0" result="BackgroundImageFix"/>
<feColorMatrix in="SourceAlpha" type="matrix" values="0 0 0 0 0 0 0 0 0 0 0 0 0 0 0 0 0 0 127 0" result="hardAlpha"/>
<feOffset dy="4"/>
<feGaussianBlur stdDeviation="2"/>
<feComposite in2="hardAlpha" operator="out"/>
<feColorMatrix type="matrix" values="0 0 0 0 0 0 0 0 0 0 0 0 0 0 0 0 0 0 0.25 0"/>
<feBlend mode="normal" in2="BackgroundImageFix" result="effect1_dropShadow_0_379"/>
<feBlend mode="normal" in="SourceGraphic" in2="effect1_dropShadow_0_379" result="shape"/>
</filter>
<clipPath id="clip0_0_379">
<rect width="34" height="34" fill="white" transform="translate(4)"/>
</clipPath>
</defs>
</svg>
