<svg width="25px" height="25px" viewBox="0 0 25 25" version="1.1">
<g>
<path style=" stroke:none;fill-rule:nonzero;fill:rgb(0%,0%,0%);fill-opacity:1;" d="M 22.488281 21.667969 L 21.050781 5.453125 C 21.023438 5.132812 20.753906 4.890625 20.429688 4.890625 L 17.394531 4.890625 C 17.390625 2.195312 15.195312 0 12.5 0 C 9.804688 0 7.609375 2.195312 7.605469 4.890625 L 4.570312 4.890625 C 4.25 4.890625 3.980469 5.132812 3.949219 5.453125 L 2.511719 21.667969 C 2.511719 21.6875 2.511719 21.703125 2.511719 21.722656 C 2.511719 23.53125 4.171875 25 6.210938 25 L 18.789062 25 C 20.828125 25 22.488281 23.53125 22.488281 21.722656 C 22.488281 21.703125 22.488281 21.6875 22.488281 21.667969 Z M 12.5 1.242188 C 14.511719 1.242188 16.148438 2.878906 16.152344 4.890625 L 8.847656 4.890625 C 8.851562 2.878906 10.488281 1.242188 12.5 1.242188 Z M 18.789062 23.753906 L 6.210938 23.753906 C 4.867188 23.753906 3.769531 22.859375 3.753906 21.746094 L 5.140625 6.132812 L 7.605469 6.132812 L 7.605469 8.3125 C 7.605469 8.652344 7.882812 8.933594 8.226562 8.933594 C 8.566406 8.933594 8.847656 8.652344 8.847656 8.3125 L 8.847656 6.132812 L 16.152344 6.132812 L 16.152344 8.3125 C 16.152344 8.652344 16.433594 8.933594 16.773438 8.933594 C 17.117188 8.933594 17.394531 8.652344 17.394531 8.3125 L 17.394531 6.132812 L 19.859375 6.132812 L 21.246094 21.75 C 21.230469 22.859375 20.132812 23.753906 18.789062 23.753906 Z M 18.789062 23.753906 "/>
</g>
</svg>
