<?xml version="1.0" encoding="UTF-8"?>
<svg xmlns="http://www.w3.org/2000/svg" xmlns:xlink="http://www.w3.org/1999/xlink" width="22px" height="22px" viewBox="0 0 22 22" version="1.1">
<g id="surface1">
<path style=" stroke:none;fill-rule:nonzero;fill:rgb(0%,0%,0%);fill-opacity:1;" d="M 17.875 8.9375 C 17.875 10.910156 17.234375 12.730469 16.15625 14.210938 L 21.597656 19.652344 C 22.132812 20.191406 22.132812 21.0625 21.597656 21.601562 C 21.058594 22.136719 20.1875 22.136719 19.648438 21.601562 L 14.210938 16.15625 C 12.730469 17.238281 10.910156 17.875 8.9375 17.875 C 4 17.875 0 13.875 0 8.9375 C 0 4 4 0 8.9375 0 C 13.875 0 17.875 4 17.875 8.9375 Z M 8.9375 15.125 C 12.351562 15.125 15.125 12.351562 15.125 8.9375 C 15.125 5.523438 12.351562 2.75 8.9375 2.75 C 5.523438 2.75 2.75 5.523438 2.75 8.9375 C 2.75 12.351562 5.523438 15.125 8.9375 15.125 Z M 8.9375 15.125 "/>
</g>
</svg>
