<svg width="25px" height="25px" viewBox="0 0 25 25" version="1.1">
<g>
<path style=" stroke:none;fill-rule:nonzero;fill:rgb(0%,0%,0%);fill-opacity:1;" d="M 11.914062 4.101562 L 12.457031 4.6875 L 13.042969 4.101562 C 14.679688 2.507812 16.945312 1.78125 19.171875 2.152344 C 22.535156 2.714844 25 5.625 25 9.039062 L 25 9.320312 C 25 11.347656 24.160156 13.285156 22.675781 14.667969 L 13.851562 22.90625 C 13.484375 23.246094 13.003906 23.4375 12.5 23.4375 C 11.996094 23.4375 11.515625 23.246094 11.148438 22.90625 L 2.324219 14.667969 C 0.839844 13.285156 0 11.347656 0 9.320312 L 0 9.039062 C 0 5.625 2.46875 2.714844 5.828125 2.152344 C 8.011719 1.78125 10.320312 2.507812 11.914062 4.101562 C 11.871094 4.101562 11.914062 4.101562 11.914062 4.101562 Z M 12.457031 8.003906 L 10.257812 5.71875 C 9.199219 4.703125 7.695312 4.21875 6.214844 4.464844 C 3.980469 4.835938 2.34375 6.773438 2.34375 9.039062 L 2.34375 9.320312 C 2.34375 10.699219 2.914062 12.015625 3.921875 12.953125 L 12.5 20.960938 L 21.078125 12.953125 C 22.085938 12.015625 22.65625 10.699219 22.65625 9.320312 L 22.65625 9.039062 C 22.65625 6.773438 21.015625 4.835938 18.785156 4.464844 C 17.304688 4.21875 15.800781 4.703125 14.742188 5.71875 Z M 12.457031 8.003906 "/>
</g>
</svg>
