<svg width="47" height="47" viewBox="0 0 47 47" fill="none" xmlns="http://www.w3.org/2000/svg">
<rect width="47" height="47" rx="3" fill="#FAEDED"/>
<g clip-path="url(#clip0_669_556)">
<path d="M21.7804 33.1251H9.13878C8.51016 33.1251 8 33.6291 8 34.2501C8 34.8711 8.51022 35.3751 9.13878 35.3751H21.7803C22.3076 37.9423 24.6046 39.8751 27.3593 39.8751C30.114 39.8751 32.4108 37.9423 32.938 35.3751H38.7469C39.3755 35.3751 39.8857 34.8711 39.8857 34.2501C39.8857 33.6291 39.3755 33.1251 38.7469 33.1251H32.9383C32.411 30.5578 30.114 28.6251 27.3593 28.6251C24.6047 28.6251 22.3076 30.5578 21.7804 33.1251ZM30.7755 34.2501C30.7755 36.1142 29.2463 37.6251 27.3593 37.6251C25.4723 37.6251 23.9429 36.1142 23.9429 34.2501C23.9429 32.3859 25.4723 30.8751 27.3593 30.8751C29.2463 30.8751 30.7755 32.3859 30.7755 34.2501ZM10.3926 21.875H9.13878C8.51016 21.875 8 22.3791 8 23C8 23.621 8.51016 24.125 9.13878 24.125H10.3925C10.9198 26.6923 13.2167 28.6251 15.9715 28.6251C18.7262 28.6251 21.023 26.6923 21.5503 24.125H38.7469C39.3755 24.125 39.8857 23.621 39.8857 23C39.8857 22.379 39.3755 21.875 38.7469 21.875H21.5503C21.0231 19.3078 18.7262 17.375 15.9715 17.375C13.2168 17.375 10.9198 19.3078 10.3926 21.875ZM19.3878 23C19.3878 24.8642 17.8584 26.375 15.9715 26.375C14.0845 26.375 12.5551 24.8642 12.5551 23C12.5551 21.1359 14.0845 19.625 15.9715 19.625C17.8584 19.625 19.3878 21.1359 19.3878 23ZM26.3355 10.625H9.13878C8.51016 10.625 8 11.1291 8 11.75C8 12.371 8.51016 12.875 9.13878 12.875H26.3355C26.8627 15.4423 29.1597 17.375 31.9143 17.375C34.669 17.375 36.9659 15.4423 37.4931 12.875H38.7469C39.3755 12.875 39.8857 12.371 39.8857 11.75C39.8857 11.1291 39.3755 10.625 38.7469 10.625H37.4931C36.9659 8.05774 34.669 6.125 31.9143 6.125C29.1597 6.125 26.8628 8.05774 26.3355 10.625ZM35.3306 11.75C35.3306 13.6141 33.8012 15.125 31.9143 15.125C30.0274 15.125 28.498 13.6141 28.498 11.75C28.498 9.88587 30.0274 8.37499 31.9143 8.37499C33.8012 8.37499 35.3306 9.88587 35.3306 11.75Z" fill="#FF6838"/>
</g>
<defs>
<clipPath id="clip0_669_556">
<rect width="31.8857" height="36" fill="white" transform="translate(8 5)"/>
</clipPath>
</defs>
</svg>
